<svg xmlns="http://www.w3.org/2000/svg" xmlns:xlink="http://www.w3.org/1999/xlink" width="100" zoomAndPan="magnify" viewBox="0 0 75 74.999997" height="100" preserveAspectRatio="xMidYMid meet" version="1.0"><defs><g/><clipPath id="id1"><path d="M 16 43 L 58 43 L 58 43.035156 L 16 43.035156 Z M 49.960938 43.035156 L 58 43.035156 L 58 44.183594 L 49.960938 44.183594 Z M 16 43.035156 L 46.429688 43.035156 L 46.429688 44.183594 L 16 44.183594 Z M 16 44.183594 L 58 44.183594 L 58 45 L 16 45 Z M 16 44.183594 " clip-rule="nonzero"/></clipPath></defs><g clip-path="url(#id1)"><path fill="#eeeeee" d="M 16.820312 43.109375 L 57.929688 43.109375 L 57.929688 44.011719 L 16.820312 44.011719 Z M 16.820312 43.109375 " fill-opacity="1" fill-rule="nonzero"/></g><g fill="#eeeeee" fill-opacity="1"><g transform="translate(16.81914, 42.510003)"><g><path d="M 4.9375 -1.421875 L 2.03125 -1.421875 L 1.53125 0 L 0.34375 0 L 2.828125 -6.953125 L 4.15625 -6.953125 L 6.640625 0 L 5.4375 0 Z M 4.625 -2.34375 L 3.484375 -5.578125 L 2.34375 -2.34375 Z M 4.625 -2.34375 "/></g></g></g><g fill="#eeeeee" fill-opacity="1"><g transform="translate(23.538062, 42.510003)"><g><path d="M 7.421875 -5.59375 C 7.847656 -5.59375 8.234375 -5.503906 8.578125 -5.328125 C 8.921875 -5.148438 9.191406 -4.882812 9.390625 -4.53125 C 9.585938 -4.175781 9.6875 -3.75 9.6875 -3.25 L 9.6875 0 L 8.5625 0 L 8.5625 -3.078125 C 8.5625 -3.566406 8.4375 -3.941406 8.1875 -4.203125 C 7.9375 -4.472656 7.601562 -4.609375 7.1875 -4.609375 C 6.757812 -4.609375 6.421875 -4.472656 6.171875 -4.203125 C 5.921875 -3.941406 5.796875 -3.566406 5.796875 -3.078125 L 5.796875 0 L 4.65625 0 L 4.65625 -3.078125 C 4.65625 -3.566406 4.53125 -3.941406 4.28125 -4.203125 C 4.039062 -4.472656 3.707031 -4.609375 3.28125 -4.609375 C 2.851562 -4.609375 2.515625 -4.472656 2.265625 -4.203125 C 2.015625 -3.941406 1.890625 -3.566406 1.890625 -3.078125 L 1.890625 0 L 0.75 0 L 0.75 -5.515625 L 1.890625 -5.515625 L 1.890625 -4.875 C 2.078125 -5.101562 2.3125 -5.28125 2.59375 -5.40625 C 2.882812 -5.53125 3.191406 -5.59375 3.515625 -5.59375 C 3.960938 -5.59375 4.359375 -5.5 4.703125 -5.3125 C 5.046875 -5.132812 5.3125 -4.867188 5.5 -4.515625 C 5.664062 -4.847656 5.925781 -5.109375 6.28125 -5.296875 C 6.632812 -5.492188 7.015625 -5.59375 7.421875 -5.59375 Z M 7.421875 -5.59375 "/></g></g></g><g fill="#eeeeee" fill-opacity="1"><g transform="translate(33.676455, 42.510003)"><g><path d="M 5.796875 -2.890625 C 5.796875 -2.679688 5.785156 -2.492188 5.765625 -2.328125 L 1.546875 -2.328125 C 1.578125 -1.890625 1.738281 -1.535156 2.03125 -1.265625 C 2.332031 -1.003906 2.695312 -0.875 3.125 -0.875 C 3.738281 -0.875 4.171875 -1.128906 4.421875 -1.640625 L 5.65625 -1.640625 C 5.488281 -1.128906 5.1875 -0.710938 4.75 -0.390625 C 4.3125 -0.0664062 3.769531 0.09375 3.125 0.09375 C 2.59375 0.09375 2.117188 -0.0234375 1.703125 -0.265625 C 1.285156 -0.503906 0.957031 -0.835938 0.71875 -1.265625 C 0.488281 -1.691406 0.375 -2.191406 0.375 -2.765625 C 0.375 -3.328125 0.488281 -3.820312 0.71875 -4.25 C 0.945312 -4.6875 1.269531 -5.019531 1.6875 -5.25 C 2.101562 -5.476562 2.582031 -5.59375 3.125 -5.59375 C 3.644531 -5.59375 4.109375 -5.476562 4.515625 -5.25 C 4.921875 -5.03125 5.234375 -4.710938 5.453125 -4.296875 C 5.679688 -3.890625 5.796875 -3.421875 5.796875 -2.890625 Z M 4.609375 -3.25 C 4.597656 -3.664062 4.445312 -4 4.15625 -4.25 C 3.863281 -4.507812 3.5 -4.640625 3.0625 -4.640625 C 2.675781 -4.640625 2.34375 -4.515625 2.0625 -4.265625 C 1.78125 -4.015625 1.613281 -3.675781 1.5625 -3.25 Z M 4.609375 -3.25 "/></g></g></g><g fill="#eeeeee" fill-opacity="1"><g transform="translate(39.595501, 42.510003)"><g><path d="M 3.53125 -5.59375 C 3.96875 -5.59375 4.351562 -5.503906 4.6875 -5.328125 C 5.03125 -5.148438 5.300781 -4.882812 5.5 -4.53125 C 5.695312 -4.175781 5.796875 -3.75 5.796875 -3.25 L 5.796875 0 L 4.65625 0 L 4.65625 -3.078125 C 4.65625 -3.566406 4.53125 -3.941406 4.28125 -4.203125 C 4.039062 -4.472656 3.707031 -4.609375 3.28125 -4.609375 C 2.851562 -4.609375 2.515625 -4.472656 2.265625 -4.203125 C 2.015625 -3.941406 1.890625 -3.566406 1.890625 -3.078125 L 1.890625 0 L 0.75 0 L 0.75 -5.515625 L 1.890625 -5.515625 L 1.890625 -4.875 C 2.078125 -5.101562 2.316406 -5.28125 2.609375 -5.40625 C 2.898438 -5.53125 3.207031 -5.59375 3.53125 -5.59375 Z M 3.53125 -5.59375 "/></g></g></g><g fill="#eeeeee" fill-opacity="1"><g transform="translate(45.834499, 42.510003)"><g><path d="M 5.703125 -5.515625 L 2.328125 2.59375 L 1.15625 2.59375 L 2.265625 -0.09375 L 0.09375 -5.515625 L 1.375 -5.515625 L 2.921875 -1.3125 L 4.53125 -5.515625 Z M 5.703125 -5.515625 "/></g></g></g><g fill="#eeeeee" fill-opacity="1"><g transform="translate(51.403599, 42.510003)"><g><path d="M 0.375 -2.78125 C 0.375 -3.332031 0.488281 -3.820312 0.71875 -4.25 C 0.945312 -4.675781 1.257812 -5.003906 1.65625 -5.234375 C 2.050781 -5.472656 2.488281 -5.59375 2.96875 -5.59375 C 3.40625 -5.59375 3.785156 -5.507812 4.109375 -5.34375 C 4.429688 -5.175781 4.6875 -4.960938 4.875 -4.703125 L 4.875 -5.515625 L 6.03125 -5.515625 L 6.03125 0 L 4.875 0 L 4.875 -0.8125 C 4.6875 -0.5625 4.425781 -0.347656 4.09375 -0.171875 C 3.757812 0.00390625 3.378906 0.09375 2.953125 0.09375 C 2.472656 0.09375 2.035156 -0.0234375 1.640625 -0.265625 C 1.253906 -0.515625 0.945312 -0.859375 0.71875 -1.296875 C 0.488281 -1.734375 0.375 -2.226562 0.375 -2.78125 Z M 4.875 -2.765625 C 4.875 -3.140625 4.796875 -3.46875 4.640625 -3.75 C 4.484375 -4.03125 4.28125 -4.242188 4.03125 -4.390625 C 3.78125 -4.535156 3.503906 -4.609375 3.203125 -4.609375 C 2.910156 -4.609375 2.640625 -4.535156 2.390625 -4.390625 C 2.140625 -4.253906 1.9375 -4.046875 1.78125 -3.765625 C 1.625 -3.484375 1.546875 -3.15625 1.546875 -2.78125 C 1.546875 -2.394531 1.625 -2.054688 1.78125 -1.765625 C 1.9375 -1.484375 2.140625 -1.269531 2.390625 -1.125 C 2.648438 -0.976562 2.921875 -0.90625 3.203125 -0.90625 C 3.503906 -0.90625 3.78125 -0.976562 4.03125 -1.125 C 4.28125 -1.269531 4.484375 -1.484375 4.640625 -1.765625 C 4.796875 -2.046875 4.875 -2.378906 4.875 -2.765625 Z M 4.875 -2.765625 "/></g></g></g></svg>